<mxfile host="diagram-viewer.giteeusercontent.com" modified="2023-10-23T05:24:42.013Z" agent="5.0 (Windows NT 10.0; Win64; x64) AppleWebKit/537.36 (KHTML, like Gecko) Chrome/118.0.0.0 Safari/537.36" version="${version}" etag="HQWI-0RrZ-cbiFWY_wPi">
  <diagram id="0" name="第 1 页">
    <mxGraphModel dx="753" dy="629" grid="1" gridSize="10" guides="1" tooltips="1" connect="1" arrows="1" fold="1" page="1" pageScale="1" pageWidth="827" pageHeight="1169" math="0" shadow="0">
      <root>
        <mxCell id="0" />
        <mxCell id="1" parent="0" />
        <mxCell id="USCVb79z8IMFd4XrEr2y-8" style="edgeStyle=orthogonalEdgeStyle;rounded=0;orthogonalLoop=1;jettySize=auto;html=1;exitX=0;exitY=0.5;exitDx=0;exitDy=0;entryX=1;entryY=0.5;entryDx=0;entryDy=0;endArrow=none;endFill=0;dashed=1;" edge="1" parent="1" source="USCVb79z8IMFd4XrEr2y-2" target="USCVb79z8IMFd4XrEr2y-6">
          <mxGeometry relative="1" as="geometry" />
        </mxCell>
        <mxCell id="USCVb79z8IMFd4XrEr2y-2" value="&lt;p style=&quot;margin:0px;margin-top:4px;text-align:center;&quot;&gt;&lt;i&gt;&amp;lt;&amp;lt;controller&amp;gt;&amp;gt;&lt;/i&gt;&lt;br&gt;&lt;b&gt;CCActionManager&lt;/b&gt;&lt;/p&gt;&lt;hr size=&quot;1&quot;&gt;&lt;p style=&quot;margin:0px;margin-left:4px;&quot;&gt;&lt;br&gt;&lt;/p&gt;&lt;hr size=&quot;1&quot;&gt;&lt;p style=&quot;margin:0px;margin-left:4px;&quot;&gt;&lt;br&gt;&lt;/p&gt;" style="verticalAlign=top;align=left;overflow=fill;fontSize=12;fontFamily=Helvetica;html=1;" vertex="1" parent="1">
          <mxGeometry x="290" y="340" width="190" height="140" as="geometry" />
        </mxCell>
        <mxCell id="USCVb79z8IMFd4XrEr2y-7" style="edgeStyle=orthogonalEdgeStyle;rounded=0;orthogonalLoop=1;jettySize=auto;html=1;exitX=0;exitY=0.5;exitDx=0;exitDy=0;entryX=1;entryY=0.5;entryDx=0;entryDy=0;" edge="1" parent="1" source="USCVb79z8IMFd4XrEr2y-3" target="USCVb79z8IMFd4XrEr2y-2">
          <mxGeometry relative="1" as="geometry" />
        </mxCell>
        <mxCell id="USCVb79z8IMFd4XrEr2y-3" value="&lt;p style=&quot;margin:0px;margin-top:4px;text-align:center;&quot;&gt;&lt;i&gt;&amp;lt;&amp;lt;controller&amp;gt;&amp;gt;&lt;/i&gt;&lt;br&gt;&lt;b&gt;XXSceneController&lt;/b&gt;&lt;/p&gt;&lt;hr size=&quot;1&quot;&gt;&lt;p style=&quot;margin:0px;margin-left:4px;&quot;&gt;&lt;br&gt;&lt;/p&gt;&lt;hr size=&quot;1&quot;&gt;&lt;p style=&quot;margin:0px;margin-left:4px;&quot;&gt;&lt;br&gt;&lt;/p&gt;" style="verticalAlign=top;align=left;overflow=fill;fontSize=12;fontFamily=Helvetica;html=1;" vertex="1" parent="1">
          <mxGeometry x="530" y="340" width="190" height="140" as="geometry" />
        </mxCell>
        <mxCell id="USCVb79z8IMFd4XrEr2y-5" value="&lt;p style=&quot;margin:0px;margin-top:4px;text-align:center;&quot;&gt;&lt;b&gt;Move&lt;/b&gt;&lt;/p&gt;&lt;hr size=&quot;1&quot;&gt;&lt;p style=&quot;margin:0px;margin-left:4px;&quot;&gt;single&lt;/p&gt;&lt;p style=&quot;margin:0px;margin-left:4px;&quot;&gt;sequence&lt;/p&gt;&lt;p style=&quot;margin:0px;margin-left:4px;&quot;&gt;isMoving&lt;/p&gt;&lt;p style=&quot;margin:0px;margin-left:4px;&quot;&gt;initialized&lt;/p&gt;&lt;p style=&quot;margin:0px;margin-left:4px;&quot;&gt;moveMode&lt;/p&gt;&lt;p style=&quot;margin:0px;margin-left:4px;&quot;&gt;doneMoving&lt;/p&gt;&lt;p style=&quot;margin:0px;margin-left:4px;&quot;&gt;speed&lt;/p&gt;&lt;p style=&quot;margin:0px;margin-left:4px;&quot;&gt;n_seq&lt;/p&gt;&lt;p style=&quot;margin:0px;margin-left:4px;&quot;&gt;desseq&lt;/p&gt;&lt;p style=&quot;margin:0px;margin-left:4px;&quot;&gt;destination&lt;/p&gt;&lt;p style=&quot;margin:0px;margin-left:4px;&quot;&gt;moveAction&lt;/p&gt;&lt;hr size=&quot;1&quot;&gt;&lt;p style=&quot;margin:0px;margin-left:4px;&quot;&gt;Move()&lt;/p&gt;&lt;p style=&quot;margin:0px;margin-left:4px;&quot;&gt;Update()&lt;/p&gt;" style="verticalAlign=top;align=left;overflow=fill;fontSize=12;fontFamily=Helvetica;html=1;" vertex="1" parent="1">
          <mxGeometry x="80" y="80" width="160" height="240" as="geometry" />
        </mxCell>
        <mxCell id="USCVb79z8IMFd4XrEr2y-9" style="edgeStyle=orthogonalEdgeStyle;rounded=0;orthogonalLoop=1;jettySize=auto;html=1;exitX=0.5;exitY=0;exitDx=0;exitDy=0;entryX=0.5;entryY=1;entryDx=0;entryDy=0;shadow=0;endArrow=block;endFill=0;" edge="1" parent="1" source="USCVb79z8IMFd4XrEr2y-6" target="USCVb79z8IMFd4XrEr2y-5">
          <mxGeometry relative="1" as="geometry" />
        </mxCell>
        <mxCell id="USCVb79z8IMFd4XrEr2y-6" value="&lt;p style=&quot;margin:0px;margin-top:4px;text-align:center;&quot;&gt;&lt;b&gt;CCMoveAction&lt;/b&gt;&lt;/p&gt;&lt;hr size=&quot;1&quot;&gt;&lt;p style=&quot;margin:0px;margin-left:4px;&quot;&gt;moveObject&lt;/p&gt;&lt;hr size=&quot;1&quot;&gt;&lt;p style=&quot;margin:0px;margin-left:4px;&quot;&gt;IsMoving()&lt;/p&gt;&lt;p style=&quot;margin:0px;margin-left:4px;&quot;&gt;MoveTo()&lt;/p&gt;&lt;p style=&quot;margin:0px;margin-left:4px;&quot;&gt;MoveSequence()&lt;/p&gt;" style="verticalAlign=top;align=left;overflow=fill;fontSize=12;fontFamily=Helvetica;html=1;" vertex="1" parent="1">
          <mxGeometry x="80" y="355" width="160" height="110" as="geometry" />
        </mxCell>
      </root>
    </mxGraphModel>
  </diagram>
</mxfile>
